:SAMPLES-PER-SECOND 30
:FULLY-SPECIFIED
:DEGREES
430
root  8.0144 39.9801 2.212 64.8524 89.1882 62.5295
RightUpLeg  -3.54586 -6.22455 -1.06931
RightLeg  8.22697 6.45346 0.386842
RightFoot  -5.591 0.0812436 -2.3708
RightToes  -1.16417e-010 0 -3.6325e-017
Spine  -2.20631 -0.0452503 0.722229
Spine1  8.30138 -0.179939 1.08535
HEad  -11.853 -1.5203 -0.99568
LeftShoulder1  -0.546372 4.90412 -32.8697
LeftArm  10.6664 -1.87121 -42.4684
LeftForeArm  26.8335 -14.525 -8.5769
LeftHand  -0.0651649 8.84441 -0.55747
RightShoulder  -0.862456 -5.97341 28.3305
RightArm  18.4668 -2.16255 49.3844
RightForeArm  21.7652 10.6592 7.68354
RightHand  0.0626709 2.53594 0.715249
LeftUpLeg  0.691577 6.71892 5.35861
LeftLeg  2.18544 -7.65117 1.11315
LeftFoot  -3.40651 0.129007 -1.56343
LeftToes  3.13772e-010 -3.14513e-011 3.96022e-013
431
root  8.15231 39.9528 2.32424 43.7046 89.2338 41.4741
RightUpLeg  -3.14227 -6.1229 -0.715151
RightLeg  8.10713 6.54746 0.458939
RightFoot  -5.96464 0.0767587 -2.49102
RightToes  -1.16417e-010 0 -3.6325e-017
Spine  -2.06446 -0.117297 0.888569
Spine1  8.20782 -0.303465 1.28215
HEad  -11.8217 -1.02169 -1.33966
LeftShoulder1  -0.553697 4.92009 -32.9454
LeftArm  12.6659 -1.98898 -42.6475
LeftForeArm  24.8617 -15.7254 -7.98464
LeftHand  -0.0723477 8.27455 -1.01314
RightShoulder  -0.858198 -5.95212 28.4563
RightArm  18.1499 -3.10512 49.0827
RightForeArm  22.0477 10.3715 7.70474
RightHand  0.0515981 2.49676 0.564455
LeftUpLeg  0.794994 6.92693 5.8704
LeftLeg  2.8089 -7.82779 1.05858
LeftFoot  -3.97698 0.148181 -1.92936
LeftToes  3.13772e-010 -3.14513e-011 3.96022e-013
432
root  8.28103 39.8826 2.44489 23.7433 88.9173 21.4492
RightUpLeg  -3.40006 -6.04156 -0.417461
RightLeg  8.92495 6.84233 0.594365
RightFoot  -6.86003 0.0524263 -2.52842
RightToes  -1.16417e-010 0 -3.6325e-017
Spine  -1.84906 -0.0783104 1.52493
Spine1  7.89865 -0.153193 0.916091
HEad  -12.0917 -0.805412 -1.74847
LeftShoulder1  -0.546806 4.90774 -32.7991
LeftArm  15.6235 -1.55917 -42.7369
LeftForeArm  21.617 -17.836 -6.75075
LeftHand  -0.0814512 8.68695 -1.12431
RightShoulder  -0.884206 -6.01734 28.5926
RightArm  17.5456 -3.63767 49.0524
RightForeArm  21.9606 9.49166 7.88293
RightHand  0.0350489 3.36358 0.219156
LeftUpLeg  0.410078 6.76174 6.17692
LeftLeg  4.1268 -7.33896 0.967455
LeftFoot  -4.96762 0.152497 -2.20987
LeftToes  3.13772e-010 -3.14513e-011 3.96022e-013
433
root  8.3682 39.7534 2.55714 3.47849 88.5859 1.26682
RightUpLeg  -3.91133 -5.9853 0.0681747
RightLeg  10.507 7.09518 0.919129
RightFoot  -8.02926 0.0265426 -2.80181
RightToes  -1.16417e-010 0 -3.6325e-017
Spine  -1.26723 -0.00850906 2.81286
Spine1  7.71116 0.0929511 0.353298
HEad  -12.5967 -0.451552 -2.1414
LeftShoulder1  -0.541933 4.90432 -32.549
LeftArm  18.3944 -0.854642 -42.8238
LeftForeArm  18.3744 -20.4947 -5.18894
LeftHand  -0.0554199 8.0821 -0.479277
RightShoulder  -0.860017 -5.95958 28.4254
RightArm  16.0972 -3.9901 49.7124
RightForeArm  22.2775 8.60734 7.77201
RightHand  0.0206974 2.73803 0.0809878
LeftUpLeg  -0.689108 5.52641 6.72925
LeftLeg  7.13794 -5.82267 0.700434
LeftFoot  -6.6977 0.143536 -2.52897
LeftToes  3.13772e-010 -3.14513e-011 3.96022e-013
434
root  8.44337 39.5458 2.63624 -14.5976 88.597 -16.6911
RightUpLeg  -4.77455 -6.25524 0.477109
RightLeg  12.9847 7.20935 1.46626
RightFoot  -9.63928 -0.0188043 -3.14037
RightToes  -1.16417e-010 0 -3.6325e-017
Spine  -0.529646 -0.024707 4.45504
Spine1  7.60431 0.276501 -0.0173265
HEad  -13.3356 -0.648867 -2.71532
LeftShoulder1  -0.556535 4.94285 -32.5268
LeftArm  19.2986 0.0719569 -42.5467
LeftForeArm  16.7922 -23.5412 -4.16255
LeftHand  -0.0331904 8.18689 0.436457
RightShoulder  -0.841904 -5.92342 28.1946
RightArm  15.3157 -3.86867 50.4854
RightForeArm  21.7389 7.70875 7.79317
RightHand  0.00487829 2.41865 -0.122315
LeftUpLeg  -2.94415 2.12828 7.31132
LeftLeg  12.2611 -2.50647 0.287274
LeftFoot  -8.68087 0.115703 -2.80204
LeftToes  3.13772e-010 -3.14513e-011 3.96022e-013
435
root  8.48776 39.3041 2.67426 -57.7683 88.8948 -59.6208
RightUpLeg  -5.4948 -6.72498 0.942306
RightLeg  15.4837 6.74396 1.99022
RightFoot  -11.3564 -0.0763909 -3.35239
RightToes  -1.16417e-010 0 -3.6325e-017
Spine  0.598931 -0.156783 6.561
Spine1  7.45085 0.367641 -0.302885
HEad  -14.44 -1.22541 -3.46424
LeftShoulder1  -0.576075 4.9833 -32.7829
LeftArm  17.3586 0.616276 -42.1962
LeftForeArm  18.7417 -26.0868 -4.58661
LeftHand  -0.030177 7.33238 0.562166
RightShoulder  -0.84726 -5.94963 28.0401
RightArm  14.9669 -3.58894 50.7938
RightForeArm  20.1792 8.05367 7.64955
RightHand  0.00655922 2.76076 -0.120439
LeftUpLeg  -6.57901 -0.519394 8.14857
LeftLeg  19.6803 -0.618965 -0.0108901
LeftFoot  -9.92577 0.112637 -4.35128
LeftToes  3.13772e-010 -3.14513e-011 3.96022e-013
436
root  8.49137 39.0815 2.71368 -112.241 88.3807 -113.805
RightUpLeg  -6.08285 -7.07091 1.46149
RightLeg  17.6549 5.77912 2.24209
RightFoot  -12.9918 -0.13443 -3.21767
RightToes  -1.16417e-010 0 -3.6325e-017
Spine  1.92207 -0.19177 8.53102
Spine1  7.30486 0.527214 -0.376217
HEad  -16.2842 -2.03345 -3.89368
LeftShoulder1  -0.613632 5.06892 -33.054
LeftArm  16.4339 0.955747 -42.1653
LeftForeArm  19.003 -28.4258 -5.11009
LeftHand  -0.0202115 7.05236 1.15187
RightShoulder  -0.837822 -5.92985 27.9659
RightArm  14.5188 -2.97077 50.8346
RightForeArm  18.8719 9.10791 7.27605
RightHand  0.0145574 2.76098 -0.0075101
LeftUpLeg  -11.2548 -1.77089 8.99814
LeftLeg  28.5238 -0.728782 -0.108762
LeftFoot  -8.987 0.232117 -7.94457
LeftToes  3.13772e-010 -3.14513e-011 3.96022e-013
437
root  8.59795 38.9305 2.76839 -136.621 87.2918 -137.51
RightUpLeg  -5.64365 -7.4468 1.81397
RightLeg  18.9209 4.76797 2.22239
RightFoot  -14.0089 -0.174921 -3.43879
RightToes  -1.16417e-010 0 -3.6325e-017
Spine  3.20375 -0.0799875 10.5613
Spine1  7.14964 0.999313 -0.997782
HEad  -17.1099 -3.34753 -4.00114
LeftShoulder1  -0.590247 5.01743 -32.8453
LeftArm  15.3742 1.77844 -42.7665
LeftForeArm  19.3334 -29.7093 -5.39166
LeftHand  -0.0240913 6.7203 0.991988
RightShoulder  -0.833289 -5.90365 28.1174
RightArm  14.6604 -2.04844 50.6095
RightForeArm  17.0793 10.0595 7.05148
RightHand  0.00358111 2.98966 -0.174571
LeftUpLeg  -15.6751 -2.60728 9.50415
LeftLeg  36.895 -0.496061 -0.0186574
LeftFoot  -5.08589 0.554299 -10.1395
LeftToes  3.13772e-010 -3.14513e-011 3.96022e-013
438
root  8.79458 38.8608 2.83601 -145.816 86.7919 -146.291
RightUpLeg  -5.04775 -7.77463 1.7445
RightLeg  19.4935 4.35743 2.17654
RightFoot  -14.65 -0.206089 -3.72028
RightToes  -1.16417e-010 0 -3.6325e-017
Spine  3.71028 0.363468 11.7721
Spine1  7.28588 1.72961 -1.74795
HEad  -17.4591 -4.59457 -3.45288
LeftShoulder1  -0.575536 4.97536 -32.9491
LeftArm  14.8959 2.82747 -42.8629
LeftForeArm  19.0803 -30.4823 -5.59012
LeftHand  -0.0238948 6.84562 0.912753
RightShoulder  -0.834413 -5.91655 27.98
RightArm  15.0823 -0.541433 50.5563
RightForeArm  15.6861 11.1426 6.84068
RightHand  -0.030423 3.06194 -0.649536
LeftUpLeg  -19.9393 -2.62168 9.05646
LeftLeg  43.6315 0.167046 0.529147
LeftFoot  0.573016 0.689646 -6.55843
LeftToes  3.13772e-010 -3.14513e-011 3.96022e-013
439
root  9.07784 38.8318 2.89176 -152.244 86.7971 -152.439
RightUpLeg  -4.30469 -8.01765 1.44414
RightLeg  19.6651 4.5223 2.12702
RightFoot  -15.4123 -0.229772 -3.53021
RightToes  -1.16417e-010 0 -3.6325e-017
Spine  4.07912 0.813559 12.2234
Spine1  7.12861 2.32842 -2.24659
HEad  -16.8102 -5.32893 -3.32389
LeftShoulder1  -0.654206 5.16003 -33.3448
LeftArm  13.8863 4.67631 -42.5108
LeftForeArm  19.4625 -30.7875 -5.64187
LeftHand  -0.0148874 7.3493 1.34761
RightShoulder  -0.820758 -5.88679 27.8342
RightArm  15.4669 2.21816 50.66
RightForeArm  14.7112 10.9802 7.00135
RightHand  0.00306981 3.31092 -0.197355
LeftUpLeg  -22.9505 -1.63649 8.15173
LeftLeg  46.9564 -0.732693 -0.43641
LeftFoot  1.44441 0.528622 -4.79044
LeftToes  3.13772e-010 -3.14513e-011 3.96022e-013
440
root  9.42268 38.8846 2.96685 -165.954 87.0058 -166.326
RightUpLeg  -3.65344 -8.4067 0.648826
RightLeg  19.2269 4.91764 2.16451
RightFoot  -15.7331 -0.241923 -3.5352
RightToes  -1.16417e-010 0 -3.6325e-017
Spine  3.85276 1.28794 12.0523
Spine1  6.91979 2.87642 -3.17371
HEad  -15.7643 -5.34095 -3.2787
LeftShoulder1  -0.655456 5.1627 -33.3527
LeftArm  13.4941 6.82766 -41.9135
LeftForeArm  20.2779 -30.2203 -5.46013
LeftHand  -0.0286904 6.63512 0.73444
RightShoulder  -0.831337 -5.92145 27.7819
RightArm  15.3334 4.53917 51.0206
RightForeArm  14.1689 11.6868 6.71788
RightHand  0.0337837 3.2065 0.215741
LeftUpLeg  -25.189 -0.0479207 6.60025
LeftLeg  46.5481 -2.47187 -2.37662
LeftFoot  0.111678 0.651105 -6.4859
LeftToes  3.13772e-010 -3.14513e-011 3.96022e-013
